{
	"asset":{
		"generator":"Khronos glTF Blender I/O v3.6.27",
		"version":"2.0"
	},
	"extensionsUsed":[
		"KHR_materials_specular",
		"KHR_materials_ior"
	],
	"scene":0,
	"scenes":[
		{
			"name":"Scene",
			"nodes":[
				0
			]
		}
	],
	"nodes":[
		{
			"mesh":0,
			"name":"juice.001",
			"scale":[
				0.40590900182724,
				0.40590900182724,
				0.40590900182724
			],
			"translation":[
				2.2308130264282227,
				0.35123252868652344,
				0.822077751159668
			]
		}
	],
	"materials":[
		{
			"doubleSided":true,
			"extensions":{
				"KHR_materials_specular":{
					"specularColorFactor":[
						2.371357614441398,
						2.371357614441398,
						2.371357614441398
					]
				},
				"KHR_materials_ior":{
					"ior":1.4500000476837158
				}
			},
			"name":"initialShadingGroup",
			"pbrMetallicRoughness":{
				"baseColorFactor":[
					0.3490196168422699,
					0.3490196168422699,
					0.3490196168422699,
					1
				],
				"roughnessFactor":0
			}
		}
	],
	"meshes":[
		{
			"name":"Mesh.001",
			"primitives":[
				{
					"attributes":{
						"POSITION":0,
						"NORMAL":1,
						"TEXCOORD_0":2,
						"TEXCOORD_1":3
					},
					"indices":4,
					"material":0
				}
			]
		}
	],
	"accessors":[
		{
			"bufferView":0,
			"componentType":5126,
			"count":272934,
			"max":[
				45.8593635559082,
				113.70346069335938,
				44.69395446777344
			],
			"min":[
				-34.36773681640625,
				6.25300931930542,
				-35.15293884277344
			],
			"type":"VEC3"
		},
		{
			"bufferView":1,
			"componentType":5126,
			"count":272934,
			"type":"VEC3"
		},
		{
			"bufferView":2,
			"componentType":5126,
			"count":272934,
			"type":"VEC2"
		},
		{
			"bufferView":3,
			"componentType":5126,
			"count":272934,
			"type":"VEC2"
		},
		{
			"bufferView":4,
			"componentType":5125,
			"count":1635972,
			"type":"SCALAR"
		}
	],
	"bufferViews":[
		{
			"buffer":0,
			"byteLength":3275208,
			"byteOffset":0,
			"target":34962
		},
		{
			"buffer":0,
			"byteLength":3275208,
			"byteOffset":3275208,
			"target":34962
		},
		{
			"buffer":0,
			"byteLength":2183472,
			"byteOffset":6550416,
			"target":34962
		},
		{
			"buffer":0,
			"byteLength":2183472,
			"byteOffset":8733888,
			"target":34962
		},
		{
			"buffer":0,
			"byteLength":6543888,
			"byteOffset":10917360,
			"target":34963
		}
	],
	"buffers":[
		{
			"byteLength":17461248,
			"uri":"fluid.bin"
		}
	]
}
