{
	"asset":{
		"generator":"Khronos glTF Blender I/O v3.6.27",
		"version":"2.0"
	},
	"scene":0,
	"scenes":[
		{
			"name":"Scene",
			"nodes":[
				2
			]
		}
	],
	"nodes":[
		{
			"mesh":0,
			"name":"Clouds",
			"scale":[
				1.0010000467300415,
				1.0010000467300415,
				1.0010000467300415
			]
		},
		{
			"children":[
				0
			],
			"mesh":1,
			"name":"Earth"
		},
		{
			"children":[
				1
			],
			"name":"Inclination axis",
			"rotation":[
				0.19111983478069305,
				-0.9200519323348999,
				-0.0695619210600853,
				0.33487147092819214
			]
		}
	],
	"materials":[
		{
			"alphaMode":"BLEND",
			"doubleSided":true,
			"name":"Clouds material.001",
			"normalTexture":{
				"index":0,
				"scale":0.3330000042915344
			},
			"pbrMetallicRoughness":{
				"baseColorFactor":[
					1,
					1,
					1,
					1.399999976158142
				],
				"baseColorTexture":{
					"index":1
				},
				"metallicFactor":0
			}
		},
		{
			"doubleSided":true,
			"emissiveFactor":[
				1,
				1,
				1
			],
			"emissiveTexture":{
				"index":2
			},
			"name":"Surface material",
			"normalTexture":{
				"index":3
			},
			"pbrMetallicRoughness":{
				"baseColorTexture":{
					"index":4
				},
				"metallicFactor":0,
				"roughnessFactor":0.19545455276966095
			}
		}
	],
	"meshes":[
		{
			"name":"Clouds.001",
			"primitives":[
				{
					"attributes":{
						"POSITION":0,
						"NORMAL":1,
						"TEXCOORD_0":2
					},
					"indices":3,
					"material":0
				}
			]
		},
		{
			"name":"planet",
			"primitives":[
				{
					"attributes":{
						"POSITION":4,
						"NORMAL":5,
						"TEXCOORD_0":6
					},
					"indices":7,
					"material":1
				}
			]
		}
	],
	"textures":[
		{
			"sampler":0,
			"source":0
		},
		{
			"sampler":0,
			"source":1
		},
		{
			"sampler":0,
			"source":2
		},
		{
			"sampler":0,
			"source":3
		},
		{
			"sampler":0,
			"source":4
		}
	],
	"images":[
		{
			"mimeType":"image/jpeg",
			"name":"earth_clouds_b_normal",
			"uri":"earth_clouds_b_normal.jpg"
		},
		{
			"mimeType":"image/png",
			"name":"earth_clouds_b_color",
			"uri":"earth_clouds_b_color.png"
		},
		{
			"mimeType":"image/jpeg",
			"name":"earth_night",
			"uri":"earth_night.jpg"
		},
		{
			"mimeType":"image/jpeg",
			"name":"earth_normal",
			"uri":"earth_normal.jpg"
		},
		{
			"mimeType":"image/jpeg",
			"name":"earth_color",
			"uri":"earth_color.jpg"
		}
	],
	"accessors":[
		{
			"bufferView":0,
			"componentType":5126,
			"count":10338,
			"max":[
				1,
				1,
				0.9999999403953552
			],
			"min":[
				-0.9999999403953552,
				-1,
				-0.9999999403953552
			],
			"type":"VEC3"
		},
		{
			"bufferView":1,
			"componentType":5126,
			"count":10338,
			"type":"VEC3"
		},
		{
			"bufferView":2,
			"componentType":5126,
			"count":10338,
			"type":"VEC2"
		},
		{
			"bufferView":3,
			"componentType":5123,
			"count":61440,
			"type":"SCALAR"
		},
		{
			"bufferView":4,
			"componentType":5126,
			"count":41155,
			"max":[
				1,
				1,
				0.9999999403953552
			],
			"min":[
				-0.9999999403953552,
				-1,
				-0.9999999403953552
			],
			"type":"VEC3"
		},
		{
			"bufferView":5,
			"componentType":5126,
			"count":41155,
			"type":"VEC3"
		},
		{
			"bufferView":6,
			"componentType":5126,
			"count":41155,
			"type":"VEC2"
		},
		{
			"bufferView":7,
			"componentType":5123,
			"count":245760,
			"type":"SCALAR"
		}
	],
	"bufferViews":[
		{
			"buffer":0,
			"byteLength":124056,
			"byteOffset":0,
			"target":34962
		},
		{
			"buffer":0,
			"byteLength":124056,
			"byteOffset":124056,
			"target":34962
		},
		{
			"buffer":0,
			"byteLength":82704,
			"byteOffset":248112,
			"target":34962
		},
		{
			"buffer":0,
			"byteLength":122880,
			"byteOffset":330816,
			"target":34963
		},
		{
			"buffer":0,
			"byteLength":493860,
			"byteOffset":453696,
			"target":34962
		},
		{
			"buffer":0,
			"byteLength":493860,
			"byteOffset":947556,
			"target":34962
		},
		{
			"buffer":0,
			"byteLength":329240,
			"byteOffset":1441416,
			"target":34962
		},
		{
			"buffer":0,
			"byteLength":491520,
			"byteOffset":1770656,
			"target":34963
		}
	],
	"samplers":[
		{
			"magFilter":9729,
			"minFilter":9987
		}
	],
	"buffers":[
		{
			"byteLength":2262176,
			"uri":"earth.bin"
		}
	]
}
